<?xml version="1.0" encoding="UTF-8" standalone="no"?> <svg xmlns="http://www.w3.org/2000/svg" viewBox="0 0 64 64"><g id="Gift_voucher" data-name="Gift voucher"><path d="M61.6,24.2,52,16.914V11a3,3,0,0,0-3-3H40.247L32.6,2.2a1,1,0,0,0-1.208,0L23.753,8H15a3,3,0,0,0-3,3v5.914L2.4,24.2A1,1,0,0,0,2,25V61a1,1,0,0,0,1,1H61a1,1,0,0,0,1-1V25A1,1,0,0,0,61.6,24.2ZM25.074,43,4,58.986V27.014Zm-8.9-27a3,3,0,0,0,.587,1,3,3,0,0,0-.587,1H14V16ZM14,20h2v1a1,1,0,0,0,1,1h1V34H16.52L14,32.089Zm11.234-3a3,3,0,0,0,.587-1H50v2H25.821A3,3,0,0,0,25.234,17ZM26,21V20H50V32.089L47.48,34H24V22h1A1,1,0,0,0,26,21Zm6.6,17.2a1,1,0,0,0-1.208,0l-4.667,3.541L19.157,36H44.843l-7.572,5.744ZM20,21.821a3,3,0,0,0,1-.587,3,3,0,0,0,1,.587V34H20ZM23,14h1v1a1,1,0,0,1-1,1H22V15A1,1,0,0,1,23,14Zm-1,4h1a1,1,0,0,1,1,1v1H23a1,1,0,0,1-1-1Zm0-5.821a3,3,0,0,0-1,.587,3,3,0,0,0-1-.587V10h2ZM19,14a1,1,0,0,1,1,1v1H19a1,1,0,0,1-1-1V14Zm0,4h1v1a1,1,0,0,1-1,1H18V19A1,1,0,0,1,19,18ZM32,40.255,58.027,60H5.973ZM38.926,43,60,27.014V58.986ZM59.345,25,52,30.571V19.424ZM50,11v3H26V13a1,1,0,0,0-1-1H24V10H49A1,1,0,0,1,50,11ZM32,4.255,36.937,8H27.063ZM15,10h3v2H17a1,1,0,0,0-1,1v1H14V11A1,1,0,0,1,15,10ZM12,30.571,4.655,25,12,19.424Z"/><rect x="15" y="56" width="4" height="2"/><rect x="21" y="56" width="22" height="2"/><rect x="45" y="56" width="4" height="2"/></g></svg>