<?xml version="1.0" encoding="utf-8"?>
<!-- Generator: Adobe Illustrator 16.0.0, SVG Export Plug-In . SVG Version: 6.00 Build 0)  -->
<!DOCTYPE svg PUBLIC "-//W3C//DTD SVG 1.1//EN" "http://www.w3.org/Graphics/SVG/1.1/DTD/svg11.dtd">
<svg version="1.1" id="Layer_1" xmlns="http://www.w3.org/2000/svg" xmlns:xlink="http://www.w3.org/1999/xlink" x="0px" y="0px"
	 width="1024px" height="1024px" viewBox="0 0 1024 1024" enable-background="new 0 0 1024 1024" xml:space="preserve">
<rect fill="none" width="1024" height="1024"/>
<g>
	<g>
		<path d="M681.011,509.731c0.402,99.751-74.975,180.897-168.318,181.282c-93.308,0.348-169.34-80.214-169.703-179.947
			c-0.401-99.751,74.956-180.916,168.317-181.282C604.632,329.437,680.61,409.981,681.011,509.731z"/>
	</g>
	<g>
		<path d="M277.737,551.011c0.073,22.536-16.948,40.847-38.015,40.921c-21.032,0.091-38.198-18.093-38.27-40.593
			c-0.092-22.537,16.911-40.83,37.978-40.939C260.497,510.327,277.628,528.509,277.737,551.011z"/>
	</g>
	<g>
		<path d="M822.569,445.643c0.053,22.501-16.949,40.83-38.017,40.904c-21.068,0.091-38.218-18.075-38.325-40.611
			c-0.091-22.5,16.93-40.829,38.015-40.94C805.291,404.941,822.459,423.105,822.569,445.643z"/>
	</g>
	<path fill-rule="evenodd" clip-rule="evenodd" d="M0,829.245c0-208.612,0-417.243,0-625.854c6.342,2.506,12.611,5.104,18.971,7.5
		c112.863,42.677,229.061,59.433,347.409,32.341c72.604-16.628,143.26-42.201,214.316-65.214
		C730.59,129.506,878.224,134.262,1024,194.262c0,208.613,0,417.225,0,625.837c-14.889-5.471-29.706-11.087-44.667-16.393
		c-104.243-36.914-210.945-49.938-319.032-23.377c-65.883,16.171-130.23,38.944-194.654,60.586
		C308.846,893.599,153.776,891.385,0,829.245z M949.518,623.249c0-112.337,0-222.186,0-331.943
		c-52.887-2.067-82.046-14.616-96.187-48.787c-8.566-20.745-21.797-23.561-39.619-24.641
		c-77.489-4.702-152.448,8.195-225.215,34.025c-130.996,46.481-262.211,90.97-398.2,72.677
		c-17.732,22.829-29.123,45.988-47.62,58.921c-18.46,12.878-44.011,15.494-68.176,23.14c0,105.696,0,215.544,0,326.381
		c42.644-3.438,78.072,9.147,96.04,47.781c9.732,20.891,22.563,24.11,41.735,25.264c89.298,5.377,174.368-13.739,257.908-42.788
		c78.583-27.329,156.801-57.037,240.469-63.769c43.446-3.477,87.421-0.604,130.904-0.604
		C858.414,643.864,893.314,618.804,949.518,623.249z"/>
</g>
</svg>
